<svg version="1.1" id="Layer_1" xmlns="http://www.w3.org/2000/svg" xmlns:xlink="http://www.w3.org/1999/xlink" x="0px" y="0px"
	 width="100%" viewBox="0 0 64 64" enable-background="new 0 0 64 64" xml:space="preserve">
<path fill="#000000" opacity="1.000000" stroke="none" 
	d="
M1.000000,33.000000 
	C1.000000,22.369921 1.000000,11.739841 1.000000,1.054881 
	C22.223457,1.054881 43.447083,1.054881 65.000000,1.054881 
	C65.000000,11.351901 65.000000,21.707293 64.557953,32.704483 
	C56.187309,33.346287 48.258713,33.346287 40.043091,33.346287 
	C40.362228,29.161077 37.960751,24.905260 44.206863,24.411203 
	C44.206863,21.210499 44.206863,18.268581 44.206863,15.350990 
	C45.978165,15.072112 47.379982,14.851405 48.789570,14.629477 
	C48.789570,11.343490 48.789570,8.394388 48.789570,5.075528 
	C44.206135,4.394789 39.777920,3.278052 35.335686,3.219173 
	C31.625134,3.169992 27.918007,4.702496 24.173769,4.919000 
	C18.694075,5.235854 13.180811,4.939940 7.687168,5.094291 
	C7.095675,5.110909 6.539403,6.381117 5.981339,7.378442 
	C5.986913,8.099377 5.977943,8.511689 5.688520,9.046595 
	C5.595035,9.804790 5.782002,10.440391 5.982527,11.385288 
	C5.986319,12.106455 5.976553,12.518324 5.631035,13.146093 
	C6.516490,13.907819 7.729977,14.905412 8.960155,14.926438 
	C17.185913,15.067033 25.415228,14.999470 33.637901,14.999470 
	C33.637901,21.337233 33.637901,27.032295 33.637901,33.000000 
	C22.518661,33.000000 11.759331,33.000000 1.000000,33.000000 
z"/>
<path fill="#8D6C9F" opacity="1.000000" stroke="none" 
	d="
M5.966794,7.069818 
	C6.539403,6.381117 7.095675,5.110909 7.687168,5.094291 
	C13.180811,4.939940 18.694075,5.235854 24.173769,4.919000 
	C27.918007,4.702496 31.625134,3.169992 35.335686,3.219173 
	C39.777920,3.278052 44.206135,4.394789 48.789570,5.075528 
	C48.789570,8.394388 48.789570,11.343490 48.789570,14.629477 
	C47.379982,14.851405 45.978165,15.072112 44.206863,15.350990 
	C44.206863,18.268581 44.206863,21.210499 44.206863,24.411203 
	C37.960751,24.905260 40.362228,29.161077 40.043091,33.346287 
	C48.258713,33.346287 56.187309,33.346287 64.557953,33.173141 
	C65.000000,34.714359 65.000000,36.428715 64.608047,38.591400 
	C63.851501,39.309299 63.222256,39.529362 63.161198,39.855721 
	C61.819107,47.029438 57.663765,51.954235 52.605125,57.283924 
	C46.646217,63.562111 40.350330,62.978386 33.437485,62.999714 
	C33.271446,63.000225 33.103226,63.017414 32.939682,62.997227 
	C27.081993,62.274223 19.980114,65.761925 16.172935,58.055138 
	C16.126270,57.960667 15.852274,57.998432 15.703774,57.931480 
	C8.377915,54.628674 4.815292,48.514313 2.936774,41.059361 
	C2.735582,40.260925 1.666485,39.681190 1.000000,39.000000 
	C1.000000,37.285641 1.000000,35.571285 1.000000,33.428463 
	C11.759331,33.000000 22.518661,33.000000 33.637901,33.000000 
	C33.637901,27.032295 33.637901,21.337233 33.637901,14.999470 
	C25.415228,14.999470 17.185913,15.067033 8.960155,14.926438 
	C7.729977,14.905412 6.516490,13.907819 6.100280,13.167696 
	C14.539847,12.977180 22.179720,13.127445 29.804157,12.851401 
	C31.197239,12.800963 32.527443,11.013732 33.886669,10.028226 
	C32.546227,9.024183 31.232674,7.196656 29.860910,7.151864 
	C21.903795,6.892040 13.932977,7.051911 5.966794,7.069818 
M59.852364,41.211655 
	C58.943718,40.491524 58.039982,39.150642 57.125706,39.143417 
	C40.697056,39.013573 24.266802,39.010460 7.838684,39.167751 
	C7.180030,39.174057 6.539066,41.028046 6.025460,42.752136 
	C10.737738,57.215351 22.769375,58.007179 35.721348,57.079971 
	C35.514542,57.785038 35.307739,58.490108 35.100933,59.195175 
	C30.555405,59.195175 26.009878,59.195175 21.464350,59.195175 
	C41.853653,63.261700 50.168686,61.032707 59.852364,41.211655 
M19.503845,36.999161 
	C33.372368,36.999161 47.240894,36.999161 61.109417,36.999161 
	C61.093082,36.518112 61.076752,36.037064 61.060421,35.556015 
	C42.015572,35.556015 22.970722,35.556015 3.925874,35.556015 
	C3.919704,36.037064 3.913535,36.518112 3.907366,36.999161 
	C8.773882,36.999161 13.640397,36.999161 19.503845,36.999161 
M36.000259,20.487610 
	C36.000259,24.485058 36.000259,28.482508 36.000259,32.479954 
	C36.561882,32.491337 37.123501,32.502720 37.685123,32.514103 
	C37.894501,27.812210 38.103878,23.110315 38.366993,17.201603 
	C39.755245,19.490532 40.399105,20.552114 41.600906,22.533628 
	C41.600906,16.334913 41.600906,11.333826 41.600906,6.126717 
	C39.608517,6.264352 38.026569,6.373634 36.000259,6.513612 
	C36.000259,10.906352 36.000259,15.203754 36.000259,20.487610 
z"/>
<path fill="#000000" opacity="1.000000" stroke="none" 
	d="
M1.000000,39.468666 
	C1.666485,39.681190 2.735582,40.260925 2.936774,41.059361 
	C4.815292,48.514313 8.377915,54.628674 15.703774,57.931480 
	C15.852274,57.998432 16.126270,57.960667 16.172935,58.055138 
	C19.980114,65.761925 27.081993,62.274223 32.939682,62.997227 
	C33.103226,63.017414 33.271446,63.000225 33.437485,62.999714 
	C40.350330,62.978386 46.646217,63.562111 52.605125,57.283924 
	C57.663765,51.954235 61.819107,47.029438 63.161198,39.855721 
	C63.222256,39.529362 63.851501,39.309299 64.608047,39.019863 
	C65.000000,47.633854 65.000000,56.267704 65.000000,64.950775 
	C43.780346,64.950775 22.560556,64.950775 1.000000,64.950775 
	C1.000000,56.648865 1.000000,48.293098 1.000000,39.468666 
z"/>
<path fill="#DBB2BA" opacity="1.000000" stroke="none" 
	d="
M5.981338,7.378442 
	C13.932977,7.051911 21.903795,6.892040 29.860910,7.151864 
	C31.232674,7.196656 32.546227,9.024183 33.886669,10.028226 
	C32.527443,11.013732 31.197239,12.800963 29.804157,12.851401 
	C22.179720,13.127445 14.539847,12.977180 6.436033,12.951796 
	C5.976553,12.518324 5.986319,12.106455 6.451474,11.361601 
	C14.892357,11.028616 22.877850,11.028616 30.863342,11.028616 
	C30.861786,10.327078 30.860229,9.625539 30.858673,8.924001 
	C22.562107,8.924001 14.265540,8.924001 5.968974,8.924001 
	C5.977943,8.511689 5.986913,8.099377 5.981338,7.378442 
z"/>
<path fill="#8D6C9F" opacity="1.000000" stroke="none" 
	d="
M5.688520,9.046595 
	C14.265540,8.924001 22.562107,8.924001 30.858673,8.924001 
	C30.860229,9.625539 30.861786,10.327078 30.863342,11.028616 
	C22.877850,11.028616 14.892357,11.028616 6.437918,11.052303 
	C5.782002,10.440391 5.595035,9.804790 5.688520,9.046595 
z"/>
<path fill="#84CAF7" opacity="1.000000" stroke="none" 
	d="
M59.839848,42.023315 
	C50.168686,61.032707 41.853653,63.261700 21.464350,59.195175 
	C26.009878,59.195175 30.555405,59.195175 35.100933,59.195175 
	C35.307739,58.490108 35.514542,57.785038 35.721348,57.079971 
	C22.769375,58.007179 10.737738,57.215351 6.434179,42.381500 
	C24.508549,42.015011 42.174198,42.019161 59.839848,42.023315 
z"/>
<path fill="#7BBEEB" opacity="1.000000" stroke="none" 
	d="
M59.846107,41.617485 
	C42.174198,42.019161 24.508549,42.015011 6.366379,42.016006 
	C6.539066,41.028046 7.180030,39.174057 7.838684,39.167751 
	C24.266802,39.010460 40.697056,39.013573 57.125706,39.143417 
	C58.039982,39.150642 58.943718,40.491524 59.846107,41.617485 
z"/>
<path fill="#85CBF8" opacity="1.000000" stroke="none" 
	d="
M19.005379,36.999161 
	C13.640397,36.999161 8.773882,36.999161 3.907366,36.999161 
	C3.913535,36.518112 3.919704,36.037064 3.925874,35.556015 
	C22.970722,35.556015 42.015572,35.556015 61.060421,35.556015 
	C61.076752,36.037064 61.093082,36.518112 61.109417,36.999161 
	C47.240894,36.999161 33.372368,36.999161 19.005379,36.999161 
z"/>
<path fill="#F9E3AE" opacity="1.000000" stroke="none" 
	d="
M36.000259,19.994383 
	C36.000259,15.203754 36.000259,10.906352 36.000259,6.513612 
	C38.026569,6.373634 39.608517,6.264352 41.600906,6.126717 
	C41.600906,11.333826 41.600906,16.334913 41.600906,22.533628 
	C40.399105,20.552114 39.755245,19.490532 38.366993,17.201603 
	C38.103878,23.110315 37.894501,27.812210 37.685123,32.514103 
	C37.123501,32.502720 36.561882,32.491337 36.000259,32.479954 
	C36.000259,28.482508 36.000259,24.485058 36.000259,19.994383 
z"/>
</svg>